# xmcd CD database file
#
# Track frame offsets:
#	225
#	19842
#	41692
#	60204
#	82292
#	102385
#	122586
#	138273
#	156416
#	176937
#
# Disc length: 2604 seconds
#
# Revision: 0
# Processed by: cddbd v1.4PL0 Copyright (c) Steve Scherf et al.
# Submitted via: NeoAudio 9.9.9
#
DISCID=880a290a
DTITLE=Various Artist - Merengue Manía 3
DYEAR=1998
DGENRE=Merengue
TTITLE0=Gisselle - Quiero estár Contigo
TTITLE1=Zafra Negra - No Llores por ella
TTITLE2=Sin Fronteras - No Dejemos qué Muera el Amor
TTITLE3=Kinito Mendez - El Baile del Sua-Sua
TTITLE4=Milly y los Vecinos - Hasta Siempre
TTITLE5=Sergio Vargas - Qué Te has Creido
TTITLE6=Karis - Tu Foto
TTITLE7=La Linea - Si Me Dejas no Vale
TTITLE8=Jessica - Lo Tengo Dominao
TTITLE9=Grupo Manía - A que Te Pego Mi Manía
EXTD=YEAR: 1998
EXTT0=
EXTT1=
EXTT2=
EXTT3=
EXTT4=
EXTT5=
EXTT6=
EXTT7=
EXTT8=
EXTT9=
PLAYORDER=
